<svg viewBox="0 0 22 40" fill="none" xmlns="http://www.w3.org/2000/svg">
<ellipse cx="10.65" cy="30.4837" rx="4.64998" ry="4.74176" fill="#5CB3DC"/>
<path d="M18.6999 30.4836C18.6999 35.2406 14.9227 39.0667 10.3001 39.0667C5.67758 39.0667 1.90038 35.2406 1.90038 30.4836C1.90038 25.7265 5.67758 21.9004 10.3001 21.9004C14.9227 21.9004 18.6999 25.7265 18.6999 30.4836Z" stroke="#5CB3DC" stroke-opacity="0.11" stroke-width="1.80076"/>
<path d="M10.8719 0C4.87709 0 0 4.97334 0 11.0864C0 18.6728 9.72926 29.8102 10.1435 30.2806C10.5326 30.7225 11.2119 30.7218 11.6003 30.2806C12.0145 29.8102 21.7437 18.6728 21.7437 11.0864C21.7436 4.97334 16.8666 0 10.8719 0ZM10.8719 16.6642C7.85575 16.6642 5.40202 14.162 5.40202 11.0864C5.40202 8.01073 7.85581 5.50857 10.8719 5.50857C13.8879 5.50857 16.3417 8.01079 16.3417 11.0864C16.3417 14.1621 13.8879 16.6642 10.8719 16.6642Z" fill="black"/>
</svg>
