<svg width="20" height="35" viewBox="0 0 20 35" fill="none" xmlns="http://www.w3.org/2000/svg">
<ellipse cx="9.31764" cy="26.67" rx="4.06825" ry="4.14855" fill="#F4BEC1"/>
<path d="M16.2478 26.6699C16.2478 30.7717 12.9915 34.0667 9.01154 34.0667C5.03155 34.0667 1.77526 30.7717 1.77526 26.6699C1.77526 22.5682 5.03155 19.2732 9.01154 19.2732C12.9915 19.2732 16.2478 22.5682 16.2478 26.6699Z" stroke="#E51C26" stroke-opacity="0.11" stroke-width="1.80076"/>
<path d="M9.51177 0C4.26695 0 0 4.35116 0 9.69944C0 16.3368 8.5121 26.0809 8.87451 26.4925C9.21492 26.8791 9.80924 26.8784 10.149 26.4925C10.5114 26.0809 19.0235 16.3368 19.0235 9.69944C19.0234 4.35116 14.7565 0 9.51177 0ZM9.51177 14.5795C6.87297 14.5795 4.72621 12.3903 4.72621 9.69944C4.72621 7.00856 6.87302 4.81943 9.51177 4.81943C12.1505 4.81943 14.2973 7.00862 14.2973 9.69949C14.2973 12.3904 12.1505 14.5795 9.51177 14.5795Z" fill="#E51C26"/>
</svg>
