<svg width="233" height="230" fill="none" xmlns="http://www.w3.org/2000/svg"><path d="M192.202 115.402l-75.652 74.674-75.194-74.674 75.194-74.221 75.652 74.221zm-12.379-62.454L151.396.902H81.704L53.277 52.948.55 81.008v68.79l52.727 28.059 28.427 52.045h69.692l28.427-52.045 52.727-28.059v-68.79l-52.727-28.06z" fill="#E61C26"/><path d="M132.6 41.18l88.031 47.066v39.827L132.6 41.179zm11.921 177.406h-40.348l88.031-86.893-47.683 86.893zM12.015 143.007v-40.278l88.031 86.893-88.031-46.615zM88.584 12.215h40.348L41.359 99.56l47.225-87.346z" fill="#fff"/></svg>