<svg xmlns="http://www.w3.org/2000/svg"><symbol id="icon-year-1" viewBox="0 0 98.3 199.1"><path class="st0" d="M44.2 198.6V51.4L11 58.9.6 16.8 58.2.5h39.6v198.1H44.2z"/></symbol><symbol id="icon-year-2" viewBox="0 0 156.7 201.1"><path class="st0" d="M.5 200.6v-41l73.6-56.2c9.2-6.9 15.6-13 19.4-18.3 3.9-5.4 5.9-11.1 5.9-17.1 0-6.2-2.1-11.1-6.2-14.6-3.9-3.6-9.2-5.3-15.7-5.3-6.4 0-12.6 2-18.5 5.9-5.8 3.7-12.6 10.2-20.5 19.4L1.6 42.7c11.2-14.6 22.9-25.3 34.8-32S63.5.5 81.7.5c21.5 0 39 5.9 52.3 17.7 13.5 11.6 20.2 26.8 20.2 45.5 0 14.8-3.6 27.2-10.7 37.1-7.1 9.7-18.7 20.3-34.8 31.8L75 156.2h81.2v44.4H.5z"/></symbol><symbol id="icon-year-4" viewBox="0 0 183.1 199.1"><path class="st0" d="M104.8 198.6v-38.2H9.5l-9-38.5L102.5.5h55.1v119.1h25v40.7h-25v38.2h-52.8zm-46.9-78.7h46.9V63.4l-46.9 56.5z"/></symbol><symbol id="icon-year-9" viewBox="0 0 163.4 205.6"><path class="st0" d="M71.9 205.1c-25.9 0-48.7-7.8-68.6-23.3l25.6-37.7c13.3 10.5 27.4 15.7 42.1 15.7 11.1 0 19.7-3.6 25.9-10.7 6.2-7.3 9.9-17.4 11.2-30.3-11.2 10.7-25.1 16-41.6 16-19.5 0-35.4-5.6-47.8-16.9C6.6 106.7.5 91.5.5 72.2c0-21.5 7.3-38.9 21.9-52C37.2 7.1 56 .5 78.9.5c13.9 0 25.4 1.9 34.6 5.6 9.4 3.7 18 9.6 25.9 17.4C155.1 38.9 163 63.3 163 96.8c0 33-8 59.3-23.9 79-16 19.5-38.4 29.3-67.2 29.3zm-11-116.6c5.2 4.9 12.1 7.3 20.5 7.3s15.1-2.4 20-7.3c5.1-4.9 7.6-11.1 7.6-18.8 0-7.7-2.6-14.1-7.9-19.1C96 45.5 89.3 43 80.9 43s-15.2 2.5-20.2 7.6c-4.9 4.9-7.3 11.3-7.3 19.4-.1 7.4 2.5 13.6 7.5 18.5z"/></symbol></svg>