<svg width="15" height="22" viewBox="0 0 15 22" fill="none" xmlns="http://www.w3.org/2000/svg">
<path d="M1.05167 19.9632L1.05164 19.9632L1.04815 19.9661C0.974205 20.0283 0.904868 20.1019 0.855394 20.1955C0.804541 20.2917 0.782207 20.3947 0.782207 20.5044C0.782207 20.9142 1.15511 21.25 1.62165 21.25C1.78839 21.25 2.0234 21.1858 2.19276 21.0447L13.9797 11.5802L13.9797 11.5802L13.9841 11.5766C14.1502 11.4369 14.25 11.2462 14.25 11.0383C14.25 10.8305 14.1502 10.6397 13.9841 10.5L13.9841 10.5L13.9802 10.4969L2.19328 0.982836L2.13621 0.934853C1.78089 0.636099 1.28867 0.732624 0.989208 0.984411C0.809709 1.13533 0.729366 1.34102 0.754484 1.55221C0.778386 1.75318 0.89361 1.93102 1.04815 2.06096L1.04812 2.061L1.05218 2.06428L12.1286 10.9893L1.05167 19.9632Z" fill="black" stroke="black" stroke-width="0.5"/>
</svg>
