<svg width="11" height="16" viewBox="0 0 11 16" fill="none" xmlns="http://www.w3.org/2000/svg">
<path d="M9.67039 1.80023L9.67037 1.80021L1.70526 8.25311L9.67 14.6708L9.67292 14.6732L9.67289 14.6732C9.78402 14.7667 9.86688 14.8945 9.88406 15.0391C9.90212 15.1909 9.84435 15.3388 9.71528 15.4473L9.71528 15.4473M9.67039 1.80023L9.71528 15.4473M9.67039 1.80023L9.67289 1.79812C9.72607 1.75341 9.77593 1.70047 9.8115 1.63317C9.84807 1.56399 9.86413 1.48996 9.86413 1.41106C9.86413 1.1164 9.59599 0.874919 9.26051 0.874919C9.14061 0.874919 8.97162 0.921071 8.84984 1.02256L0.374183 7.82822L0.374155 7.82818L0.371047 7.8308C0.251582 7.93124 0.179813 8.0684 0.179813 8.21785C0.179813 8.36731 0.251582 8.50447 0.371047 8.60491L0.371024 8.60494L0.373827 8.6072L8.84952 15.4485L8.8905 15.483L9.00619 15.3454L8.8905 15.483C9.146 15.6978 9.49994 15.6284 9.71528 15.4473M9.67039 1.80023L9.71528 15.4473" fill="#D1D0D0" stroke="#D1D0D0" stroke-width="0.359536"/>
</svg>
