<svg width="21" height="20" viewBox="0 0 21 20" fill="none" xmlns="http://www.w3.org/2000/svg">
<path fill-rule="evenodd" clip-rule="evenodd" d="M0.833496 4.89232V14.559C0.833496 15.6267 1.69908 16.4923 2.76683 16.4923H18.2335C19.3013 16.4923 20.1669 15.6267 20.1669 14.559V4.89232C20.1669 3.82457 19.3013 2.95898 18.2335 2.95898H2.76683C1.69908 2.95898 0.833496 3.82457 0.833496 4.89232ZM19.2002 4.90866V4.89232C19.2002 4.35844 18.7674 3.92565 18.2335 3.92565H2.76683C2.23296 3.92565 1.80016 4.35844 1.80016 4.89232V4.90866L9.75416 9.68105C10.2134 9.95656 10.787 9.95656 11.2462 9.68105L19.2002 4.90866ZM1.80016 6.03598V14.559C1.80016 15.0929 2.23296 15.5256 2.76683 15.5256H18.2335C18.7674 15.5256 19.2002 15.0929 19.2002 14.559V6.03598L11.7436 10.51C10.9782 10.9691 10.0221 10.9691 9.25682 10.51L1.80016 6.03598Z" fill="#C3C3C3"/>
</svg>
