<?xml version="1.0" encoding="utf-8"?>
<!-- Generator: Adobe Illustrator 24.1.1, SVG Export Plug-In . SVG Version: 6.00 Build 0)  -->
<svg version="1.1" id="Слой_1" xmlns="http://www.w3.org/2000/svg" xmlns:xlink="http://www.w3.org/1999/xlink" x="0px" y="0px"
	 viewBox="0 0 163.4 205.6" style="enable-background:new 0 0 163.4 205.6;" xml:space="preserve">

<path class="st0" d="M71.9,205.1c-25.9,0-48.7-7.8-68.6-23.3l25.6-37.7c13.3,10.5,27.4,15.7,42.1,15.7c11.1,0,19.7-3.6,25.9-10.7
	c6.2-7.3,9.9-17.4,11.2-30.3c-11.2,10.7-25.1,16-41.6,16c-19.5,0-35.4-5.6-47.8-16.9C6.6,106.7,0.5,91.5,0.5,72.2
	c0-21.5,7.3-38.9,21.9-52C37.2,7.1,56,0.5,78.9,0.5c13.9,0,25.4,1.9,34.6,5.6c9.4,3.7,18,9.6,25.9,17.4
	c15.7,15.4,23.6,39.8,23.6,73.3c0,33-8,59.3-23.9,79C123.1,195.3,100.7,205.1,71.9,205.1z M60.9,88.5c5.2,4.9,12.1,7.3,20.5,7.3
	s15.1-2.4,20-7.3c5.1-4.9,7.6-11.1,7.6-18.8c0-7.7-2.6-14.1-7.9-19.1c-5.1-5.1-11.8-7.6-20.2-7.6s-15.2,2.5-20.2,7.6
	c-4.9,4.9-7.3,11.3-7.3,19.4C53.3,77.4,55.9,83.6,60.9,88.5z"/>
</svg>
