<svg width="16" height="16" viewBox="0 0 16 16" xmlns="http://www.w3.org/2000/svg">
<path d="M15.1756 0.0582681L0.330303 7.05863C0.227787 7.10715 0.141841 7.18476 0.0831893 7.28179C0.0245377 7.37882 -0.00422144 7.49096 0.000500784 7.60422C0.00522301 7.71748 0.0432176 7.82684 0.109743 7.91866C0.176268 8.01048 0.268378 8.08068 0.374577 8.12051L5.84338 10.1519L7.87613 15.6153C7.9142 15.7233 7.98359 15.8176 8.07546 15.8861C8.16733 15.9546 8.27753 15.9943 8.39202 16H8.41704C8.52642 15.9999 8.63352 15.9687 8.72588 15.9101C8.81823 15.8516 8.89203 15.768 8.9387 15.6691L15.9436 0.825826C15.9951 0.718134 16.0119 0.597146 15.9917 0.479521C15.9715 0.361896 15.9153 0.253421 15.8309 0.169032C15.7464 0.0846438 15.6379 0.0284929 15.5202 0.00831172C15.4025 -0.0118695 15.2814 0.00491174 15.1736 0.0563445L15.1756 0.0582681Z"/>
</svg>
