<svg width="16" height="11" viewBox="0 0 16 11" xmlns="http://www.w3.org/2000/svg">
<path d="M13.2923 0H2.70769C1.98957 0 1.30086 0.283293 0.793065 0.787557C0.285274 1.29182 0 1.97575 0 2.68889V8.31111C0 9.02425 0.285274 9.70818 0.793065 10.2124C1.30086 10.7167 1.98957 11 2.70769 11H13.2923C14.0104 11 14.6991 10.7167 15.2069 10.2124C15.7147 9.70818 16 9.02425 16 8.31111V2.68889C16 1.97575 15.7147 1.29182 15.2069 0.787557C14.6991 0.283293 14.0104 0 13.2923 0ZM8.67692 6.72222L6.27692 7.94444V3.05556L8.67692 4.27778L11.0769 5.5L8.67692 6.72222Z"/>
</svg>
