<?xml version="1.0" encoding="utf-8"?>
<!-- Generator: Adobe Illustrator 24.1.1, SVG Export Plug-In . SVG Version: 6.00 Build 0)  -->
<svg version="1.1" id="Слой_1" xmlns="http://www.w3.org/2000/svg" xmlns:xlink="http://www.w3.org/1999/xlink" x="0px" y="0px"
	 viewBox="0 0 156.7 201.1" style="enable-background:new 0 0 156.7 201.1;" xml:space="preserve">
<path class="st0" d="M0.5,200.6v-41l73.6-56.2c9.2-6.9,15.6-13,19.4-18.3c3.9-5.4,5.9-11.1,5.9-17.1c0-6.2-2.1-11.1-6.2-14.6
	c-3.9-3.6-9.2-5.3-15.7-5.3c-6.4,0-12.6,2-18.5,5.9c-5.8,3.7-12.6,10.2-20.5,19.4L1.6,42.7c11.2-14.6,22.9-25.3,34.8-32
	S63.5,0.5,81.7,0.5c21.5,0,39,5.9,52.3,17.7c13.5,11.6,20.2,26.8,20.2,45.5c0,14.8-3.6,27.2-10.7,37.1c-7.1,9.7-18.7,20.3-34.8,31.8
	L75,156.2h81.2v44.4H0.5z"/>
</svg>
