<svg width="14" height="14" viewBox="0 0 14 14"  xmlns="http://www.w3.org/2000/svg">
<path d="M6.99988 4.94702C6.60896 4.94702 6.24819 5.06171 5.9375 5.25018C6.03442 5.22002 6.13511 5.2001 6.24119 5.2001C6.81627 5.2001 7.28203 5.66587 7.28203 6.24148C7.28203 6.81548 6.81627 7.28233 6.24119 7.28233C5.66611 7.28233 5.20034 6.81602 5.20034 6.24148C5.20034 6.13433 5.22134 6.03364 5.25096 5.93725C5.06142 6.24794 4.94727 6.60871 4.94727 6.99964C4.94727 8.13418 5.86534 9.05279 7.00042 9.05279C8.13388 9.05279 9.05357 8.13471 9.05357 6.99964C9.05357 5.86456 8.13334 4.94702 6.99988 4.94702Z"/>
<path d="M7.00008 3.76906C8.784 3.76906 10.2308 5.21537 10.2308 6.99983C10.2308 8.78429 8.78346 10.2306 7.00008 10.2306C5.21615 10.2306 3.76931 8.78429 3.76931 6.99983C3.76931 5.21537 5.21615 3.76906 7.00008 3.76906ZM7.00008 2.69214C4.62492 2.69214 2.69238 4.62468 2.69238 6.99983C2.69238 9.37498 4.62492 11.3075 7.00008 11.3075C9.37523 11.3075 11.3078 9.37498 11.3078 6.99983C11.3078 4.62468 9.37523 2.69214 7.00008 2.69214Z"/>
<path d="M11.375 0H2.625C1.17492 0 0 1.17492 0 2.625V11.375C0 12.8251 1.17492 14 2.625 14H11.375C12.8251 14 14 12.8251 14 11.375V2.625C14 1.17492 12.8251 0 11.375 0ZM12.9231 4.84615H9.40315C9.91631 5.41854 10.2308 6.17131 10.2308 7C10.2308 8.78446 8.78339 10.2308 7 10.2308C5.21608 10.2308 3.76923 8.78446 3.76923 7C3.76923 6.17131 4.08369 5.418 4.59685 4.84615H1.07692V2.625C1.07692 1.77154 1.77154 1.07692 2.625 1.07692H11.375C12.229 1.07692 12.9231 1.77154 12.9231 2.625V4.84615Z" />
</svg>
