<svg width="233" height="230" viewBox="0 0 233 230" fill="none" xmlns="http://www.w3.org/2000/svg">
<path d="M192.202 115.402L116.55 190.076L41.3561 115.402L116.55 41.181L192.202 115.402ZM179.823 52.9478L151.396 0.902344H81.704L53.2771 52.9478L0.549805 81.0071V149.798L53.2771 177.857L81.704 229.902H151.396L179.823 177.857L232.55 149.798V81.0071L179.823 52.9478Z" fill="#E61C26"/>
<path d="M132.6 41.1793L220.631 88.2465V128.073L132.6 41.1793ZM144.521 218.586H104.173L192.204 131.693L144.521 218.586ZM12.0146 143.007V102.729L100.046 189.622L12.0146 143.007ZM88.5838 12.2148H128.932L41.3585 99.5607L88.5838 12.2148Z" fill="white"/>
</svg>
