<svg width="63" height="63" viewBox="0 0 63 63" fill="none" xmlns="http://www.w3.org/2000/svg">
<rect x="31.418" width="44.4325" height="44.4325" transform="rotate(45 31.418 0)" fill="#C30215"/>
<path d="M40.3044 31.5L31.5 40.3044L22.749 31.5L31.5 22.749L40.3044 31.5ZM38.8636 24.1364L35.5553 18H27.4447L24.1364 24.1364L18 27.4447V35.5553L24.1364 38.8636L27.4447 45H35.5553L38.8636 38.8636L45 35.5553V27.4447L38.8636 24.1364Z" fill="white"/>
<path d="M33.3695 22.751L43.6146 28.3004V32.996L33.3695 22.751ZM34.7569 43.668H30.0612L40.3063 33.4229L34.7569 43.668ZM19.3359 34.7569V30.0079L29.581 40.2529L19.3359 34.7569ZM28.247 19.3359H32.9427L22.751 29.6344L28.247 19.3359Z" fill="#4F4F4F"/>
</svg>
