<svg width="33" height="32" viewBox="0 0 33 32" fill="none" xmlns="http://www.w3.org/2000/svg">
<g clip-path="url(#clip0)">
<path d="M26.49 16.1257L16.1541 26.4617L5.88079 16.1257L16.1541 5.85247L26.49 16.1257ZM24.7986 7.48116L20.9148 0.277344H11.3933L7.50948 7.48116L0.305664 11.365V20.8865L7.50948 24.7703L11.3933 31.9741H20.9148L24.7986 24.7703L32.0025 20.8865V11.365L24.7986 7.48116Z" fill="#ED1C24"/>
<path d="M18.3469 5.85429L30.3741 12.3691V17.8815L18.3469 5.85429ZM19.9756 30.4099H14.4631L26.4903 18.3827L19.9756 30.4099ZM1.87207 19.9487V14.3736L13.8993 26.4008L1.87207 19.9487ZM12.3333 1.84521H17.8457L5.88115 13.9351L12.3333 1.84521Z" fill="#FFDD00"/>
</g>
<defs>
<clipPath id="clip0">
<rect width="31.6968" height="31.6968" fill="white" transform="translate(0.305664 0.277344)"/>
</clipPath>
</defs>
</svg>
