<svg width="317" height="266" viewBox="0 0 317 266" fill="none" xmlns="http://www.w3.org/2000/svg">
<g clip-path="url(#clip0)">
<path d="M207.87 110.5L149.5 168.87L91.4842 110.5L149.5 52.4842L207.87 110.5ZM198.318 61.6818L176.385 21H122.615L100.682 61.6818L60 83.6146V137.385L100.682 159.318L122.615 200H176.385L198.318 159.318L239 137.385V83.6146L198.318 61.6818Z" fill="#B9433A"/>
</g>
<path d="M162.099 52.42L230.244 89.2509V120.415L162.099 52.42ZM171.327 191.244H140.094L208.239 123.249L171.327 191.244ZM68.7549 132.102V100.583L136.9 168.579L68.7549 132.102ZM128.027 29.7549H159.26L91.4698 98.1044L128.027 29.7549Z" fill="white"/>
<path d="M84.8664 221.836V232H87.4144V223.922H92.3004V232H94.8484V221.836H84.8664Z" fill="#B9433A"/>
<path d="M97.1164 221.836V232H106.146V229.914H99.6644V227.702H105.432V225.616H99.6644V223.922H106.146V221.836H97.1164Z" fill="#B9433A"/>
<path d="M106.822 221.836V223.922H110.308V232H112.856V223.922H116.342V221.836H106.822Z" fill="#B9433A"/>
<path d="M117.392 221.836V232H126.422V229.914H119.94V227.702H125.708V225.616H119.94V223.922H126.422V221.836H117.392Z" fill="#B9433A"/>
<path d="M128.316 232H130.864V228.808H134.336C136.716 228.808 138.074 227.45 138.074 225.294C138.074 223.152 136.716 221.836 134.336 221.836H128.316V232ZM130.864 223.922H133.37C134.882 223.922 135.526 224.174 135.526 225.336C135.526 226.456 134.784 226.722 133.202 226.722H130.864V223.922Z" fill="#B9433A"/>
<path d="M139.8 221.836V232H145.988C148.158 232 149.376 230.796 149.376 228.836C149.376 226.862 148.13 225.616 145.974 225.616H142.348V223.922H148.34V221.836H139.8ZM142.348 227.702H144.952C146.226 227.702 146.828 227.856 146.828 228.766C146.828 229.704 146.324 229.914 145.078 229.914H142.348V227.702Z" fill="#B9433A"/>
<path d="M149.439 221.836L154.269 229.494C153.877 230.194 153.751 230.264 152.995 230.264C152.673 230.264 152.239 230.096 152.029 230.012V231.916C152.281 232 153.065 232.182 153.555 232.182C154.717 232.182 155.529 231.748 156.341 230.208L160.709 221.836H157.923L155.431 227.184L152.239 221.836H149.439Z" fill="#B9433A"/>
<path d="M161.702 232H164.25V228.808H167.722C170.102 228.808 171.46 227.45 171.46 225.294C171.46 223.152 170.102 221.836 167.722 221.836H161.702V232ZM164.25 223.922H166.756C168.268 223.922 168.912 224.174 168.912 225.336C168.912 226.456 168.17 226.722 166.588 226.722H164.25V223.922Z" fill="#B9433A"/>
<path d="M173.187 221.836V232H175.735V223.922H180.943V221.836H173.187Z" fill="#B9433A"/>
<path d="M193.851 225.546C193.599 223.25 191.387 221.57 188.041 221.57C184.303 221.57 181.951 223.698 181.951 226.918C181.951 230.138 184.303 232.266 188.041 232.266C191.387 232.266 193.627 230.558 193.893 228.052H191.107C190.939 229.382 189.833 230.18 188.041 230.18C186.011 230.18 184.751 228.948 184.751 226.918C184.751 224.888 186.011 223.656 188.041 223.656C189.721 223.656 190.743 224.3 191.079 225.546H193.851Z" fill="#B9433A"/>
<path d="M198.157 221.836H195.609V232H198.157V228.486L199.445 227.338L203.141 232H206.263L201.237 225.784L205.717 221.836H202.441L198.157 225.742V221.836Z" fill="#B9433A"/>
<path d="M207.394 221.836V232H210.488L215.612 224.762V232H218.062V221.836H214.926L209.844 229.004V221.836H207.394Z" fill="#B9433A"/>
<path d="M220.327 221.836V232H223.421L228.545 224.762V232H230.995V221.836H227.859L222.777 229.004V221.836H220.327ZM222.651 218.448C222.693 219.148 223.155 220.94 225.423 220.94C227.719 220.94 228.181 219.148 228.223 218.448H227.019C226.949 218.896 226.613 219.456 225.423 219.456C224.359 219.456 223.967 218.896 223.883 218.448H222.651Z" fill="#B9433A"/>
<path d="M67.2627 238.836V240.922H70.7487V249H73.2967V240.922H76.7827V238.836H67.2627Z" fill="#B9433A"/>
<path d="M77.8323 249H80.3803V245.808H83.8523C86.2323 245.808 87.5903 244.45 87.5903 242.294C87.5903 240.152 86.2323 238.836 83.8523 238.836H77.8323V249ZM80.3803 240.922H82.8863C84.3983 240.922 85.0423 241.174 85.0423 242.336C85.0423 243.456 84.3003 243.722 82.7183 243.722H80.3803V240.922Z" fill="#B9433A"/>
<path d="M87.0686 249H89.8126L90.7226 246.844H95.2027L96.1266 249H98.9547L94.3206 238.836H91.8847L87.0686 249ZM91.5906 244.786L92.9206 241.65L94.2786 244.786H91.5906Z" fill="#B9433A"/>
<path d="M102.351 238.836H99.803V249H102.351V245.486L103.639 244.338L107.335 249H110.457L105.431 242.784L109.911 238.836H106.635L102.351 242.742V238.836Z" fill="#B9433A"/>
<path d="M110.37 238.836V240.922H113.856V249H116.404V240.922H119.89V238.836H110.37Z" fill="#B9433A"/>
<path d="M126.484 238.57C122.746 238.57 120.394 240.698 120.394 243.918C120.394 247.138 122.746 249.266 126.484 249.266C130.222 249.266 132.56 247.138 132.56 243.918C132.56 240.698 130.222 238.57 126.484 238.57ZM126.484 240.656C128.514 240.656 129.76 241.874 129.76 243.918C129.76 245.948 128.514 247.18 126.484 247.18C124.454 247.18 123.194 245.948 123.194 243.918C123.194 241.888 124.454 240.656 126.484 240.656Z" fill="#B9433A"/>
<path d="M134.283 249H136.831V245.808H140.303C142.683 245.808 144.041 244.45 144.041 242.294C144.041 240.152 142.683 238.836 140.303 238.836H134.283V249ZM136.831 240.922H139.337C140.849 240.922 141.493 241.174 141.493 242.336C141.493 243.456 140.751 243.722 139.169 243.722H136.831V240.922Z" fill="#B9433A"/>
<path d="M148.316 238.836H145.768V249H148.316V244.702H153.202V249H155.75V238.836H153.202V242.616H148.316V238.836Z" fill="#B9433A"/>
<path d="M160.566 238.836H158.018V249H164.206C166.376 249 167.594 247.796 167.594 245.836C167.594 243.862 166.348 242.616 164.192 242.616H160.566V238.836ZM160.566 244.702H163.17C164.444 244.702 165.046 244.856 165.046 245.766C165.046 246.704 164.542 246.914 163.296 246.914H160.566V244.702ZM172.69 238.836H170.142V249H172.69V238.836Z" fill="#B9433A"/>
<path d="M174.957 238.836V249H178.051L183.175 241.762V249H185.625V238.836H182.489L177.407 246.004V238.836H174.957ZM177.281 235.448C177.323 236.148 177.785 237.94 180.053 237.94C182.349 237.94 182.811 236.148 182.853 235.448H181.649C181.579 235.896 181.243 236.456 180.053 236.456C178.989 236.456 178.597 235.896 178.513 235.448H177.281Z" fill="#B9433A"/>
<path d="M195.117 241.874C195.229 240.908 195.901 240.516 197.665 240.516C199.065 240.516 199.835 240.852 199.835 241.776C199.835 242.728 199.219 242.91 197.889 242.91H196.727V244.702H198.029C199.499 244.702 200.213 244.842 200.213 245.976C200.213 246.942 199.289 247.32 197.707 247.32C195.467 247.32 194.963 246.774 194.963 245.878H192.485C192.485 247.53 193.465 249.266 197.777 249.266C200.297 249.266 202.873 248.72 202.873 246.242C202.873 244.66 202.061 243.708 200.633 243.582C201.627 243.582 202.495 242.546 202.495 241.258C202.495 239.018 199.877 238.57 197.609 238.57C194.375 238.57 192.821 240.194 192.681 241.874H195.117Z" fill="#B9433A"/>
<path d="M203.184 249H205.928L206.838 246.844H211.318L212.242 249H215.07L210.436 238.836H208L203.184 249ZM207.706 244.786L209.036 241.65L210.394 244.786H207.706Z" fill="#B9433A"/>
<path d="M215.918 249H223.002C225.102 249 226.292 247.852 226.292 246.102C226.292 244.828 225.704 243.974 224.528 243.596C225.438 243.134 225.914 242.35 225.914 241.37C225.914 239.676 224.766 238.836 222.484 238.836H215.918V249ZM218.466 244.688H221.854C223.072 244.688 223.632 244.996 223.632 245.864C223.632 246.788 223.058 246.914 221.854 246.914H218.466V244.688ZM218.466 240.922H221.476C222.694 240.922 223.254 241.076 223.254 241.86C223.254 242.728 222.68 242.91 221.476 242.91H218.466V240.922Z" fill="#B9433A"/>
<path d="M233.562 238.57C229.824 238.57 227.472 240.698 227.472 243.918C227.472 247.138 229.824 249.266 233.562 249.266C237.3 249.266 239.638 247.138 239.638 243.918C239.638 240.698 237.3 238.57 233.562 238.57ZM233.562 240.656C235.592 240.656 236.838 241.874 236.838 243.918C236.838 245.948 235.592 247.18 233.562 247.18C231.532 247.18 230.272 245.948 230.272 243.918C230.272 241.888 231.532 240.656 233.562 240.656Z" fill="#B9433A"/>
<path d="M242.71 238.836V241.818C242.71 244.03 242.514 246.032 241.268 246.914H240.47V251.156H242.906V249H250.774V251.156H253.21V246.914H252.006V238.836H242.71ZM249.458 240.922V246.914H243.886C244.74 246.312 245.174 244.618 245.174 241.888V240.922H249.458Z" fill="#B9433A"/>
<defs>
<clipPath id="clip0">
<rect width="179" height="179" fill="white" transform="translate(60 21)"/>
</clipPath>
</defs>
</svg>
