<svg width="32" height="32" viewBox="0 0 32 32" fill="none" xmlns="http://www.w3.org/2000/svg">
<ellipse cx="15.6503" cy="16.2987" rx="15.6503" ry="15.6503" fill="#DC2727"/>
<g clip-path="url(#clip0)">
<path d="M23.6679 11.2322C23.0402 10.486 21.8813 10.1816 19.668 10.1816H11.634C9.3701 10.1816 8.19156 10.5056 7.56623 11.3C6.95654 12.0746 6.95654 13.2158 6.95654 14.7953V17.8059C6.95654 20.8658 7.67993 22.4195 11.634 22.4195H19.6681C21.5874 22.4195 22.6509 22.1509 23.339 21.4924C24.0446 20.8172 24.3457 19.7146 24.3457 17.8059V14.7953C24.3457 13.1296 24.2985 11.9816 23.6679 11.2322ZM18.1204 16.7162L14.4722 18.6229C14.3906 18.6656 14.3014 18.6867 14.2123 18.6867C14.1115 18.6867 14.0109 18.6595 13.9217 18.6056C13.7539 18.5039 13.6514 18.322 13.6514 18.1258V14.3246C13.6514 14.1287 13.7536 13.947 13.9211 13.8452C14.0887 13.7435 14.297 13.7365 14.4709 13.8268L18.1191 15.7212C18.3047 15.8176 18.4213 16.0092 18.4216 16.2183C18.4218 16.4275 18.3057 16.6194 18.1204 16.7162Z" fill="white"/>
</g>
<defs>
<clipPath id="clip0">
<rect width="17.3891" height="17.3892" fill="white" transform="translate(6.95654 7.60742)"/>
</clipPath>
</defs>
</svg>
