<svg width="15" height="12" viewBox="0 0 15 12" fill="none" xmlns="http://www.w3.org/2000/svg">
<path d="M12.6738 0.878906H2.94508C2.39218 0.878906 1.86192 1.09855 1.47096 1.48951C1.07999 1.88047 0.860352 2.41073 0.860352 2.96364V9.91275C0.860352 10.4657 1.07999 10.9959 1.47096 11.3869C1.86192 11.7778 2.39218 11.9975 2.94508 11.9975H12.6738C13.2267 11.9975 13.757 11.7778 14.148 11.3869C14.5389 10.9959 14.7586 10.4657 14.7586 9.91275V2.96364C14.7586 2.41073 14.5389 1.88047 14.148 1.48951C13.757 1.09855 13.2267 0.878906 12.6738 0.878906ZM12.2082 2.26873L7.80946 5.56956L3.41068 2.26873H12.2082ZM12.6738 10.6077H2.94508C2.76078 10.6077 2.58403 10.5344 2.45371 10.4041C2.32339 10.2738 2.25017 10.0971 2.25017 9.91275V3.13737L7.39251 6.99412C7.5128 7.08434 7.6591 7.13311 7.80946 7.13311C7.95982 7.13311 8.10612 7.08434 8.22641 6.99412L13.3687 3.13737V9.91275C13.3687 10.0971 13.2955 10.2738 13.1652 10.4041C13.0349 10.5344 12.8581 10.6077 12.6738 10.6077Z" fill="black"/>
</svg>
