<svg width="32" height="32" viewBox="0 0 32 32" fill="none" xmlns="http://www.w3.org/2000/svg">
<g clip-path="url(#clip0)">
<path fill-rule="evenodd" clip-rule="evenodd" d="M15.6503 31.9549C7.0068 31.9549 0 24.9481 0 16.3046C0 7.66111 7.0068 0.654297 15.6503 0.654297C24.2938 0.654297 31.3006 7.66111 31.3006 16.3046C31.3006 24.9481 24.2938 31.9549 15.6503 31.9549Z" fill="url(#paint0_linear)"/>
<path opacity="0.51" fill-rule="evenodd" clip-rule="evenodd" d="M31.3006 16.3046C31.3006 24.9481 24.2938 31.9549 15.6503 31.9549C7.0068 31.9549 0 24.9481 0 16.3046C0 7.66111 7.0068 0.654297 15.6503 0.654297C24.2938 0.654297 31.3006 7.66111 31.3006 16.3046Z" fill="url(#paint1_linear)"/>
<path d="M26.2132 11.5282C26.2132 8.07195 23.7596 5.43555 20.3034 5.43555H11.2913C7.83509 5.43555 4.98047 8.36685 4.98047 11.8231V20.8352C4.98047 24.2914 7.54019 26.6683 10.9964 26.6683H20.5983C24.0545 26.6683 26.2132 24.2914 26.2132 20.8352V11.5282ZM24.1489 20.729C24.1489 22.9408 22.7039 24.604 20.4922 24.604H11.1026C8.89083 24.604 7.04476 22.9408 7.04476 20.729V11.6343C7.04476 9.42259 8.89083 7.49984 11.1026 7.49984H20.1973C22.409 7.49984 24.1489 9.42259 24.1489 11.6343V20.729Z" fill="white"/>
<path d="M15.7981 10.8457C12.7754 10.8457 10.3159 13.3052 10.3159 16.3279C10.3159 19.3506 12.7754 21.8101 15.7981 21.8101C18.8208 21.8101 21.2803 19.3506 21.2803 16.3279C21.2803 13.3052 18.8208 10.8457 15.7981 10.8457ZM19.1039 16.3279C19.1039 18.1504 17.6206 19.6337 15.7981 19.6337C13.9756 19.6337 12.4923 18.1504 12.4923 16.3279C12.4923 14.5054 13.9756 13.0221 15.7981 13.0221C17.6206 13.0221 19.1039 14.5054 19.1039 16.3279Z" fill="white"/>
<path d="M21.0913 9.27344C20.3894 9.27344 19.8232 9.84259 19.8232 10.5415C19.8232 11.2434 20.3924 11.8096 21.0913 11.8096C21.7932 11.8096 22.3594 11.2434 22.3594 10.5415C22.3594 9.84259 21.7932 9.27344 21.0913 9.27344Z" fill="white"/>
</g>
<defs>
<linearGradient id="paint0_linear" x1="21.164" y1="6.28741" x2="9.15477" y2="28.1036" gradientUnits="userSpaceOnUse">
<stop stop-color="#FEC066"/>
<stop offset="0.0812" stop-color="#FA995A"/>
<stop offset="0.1994" stop-color="#F6654B"/>
<stop offset="0.2886" stop-color="#F34542"/>
<stop offset="0.3378" stop-color="#F2393E"/>
<stop offset="0.6735" stop-color="#B750A8"/>
<stop offset="1" stop-color="#5354D6"/>
</linearGradient>
<linearGradient id="paint1_linear" x1="5.6331" y1="10.7903" x2="27.4492" y2="22.7995" gradientUnits="userSpaceOnUse">
<stop stop-color="#FEC066"/>
<stop offset="0.0812" stop-color="#FA995A"/>
<stop offset="0.1994" stop-color="#F6654B"/>
<stop offset="0.2886" stop-color="#F34542"/>
<stop offset="0.3378" stop-color="#F2393E"/>
<stop offset="0.6735" stop-color="#B750A8"/>
<stop offset="1" stop-color="#5354D6"/>
</linearGradient>
<clipPath id="clip0">
<rect width="31.3006" height="31.3006" fill="white" transform="translate(0 0.654297)"/>
</clipPath>
</defs>
</svg>
