<svg width="32" height="32" viewBox="0 0 32 32" fill="none" xmlns="http://www.w3.org/2000/svg">
<path d="M15.6503 31.9491C24.2937 31.9491 31.3006 24.9422 31.3006 16.2987C31.3006 7.65532 24.2937 0.648438 15.6503 0.648438C7.00688 0.648438 0 7.65532 0 16.2987C0 24.9422 7.00688 31.9491 15.6503 31.9491Z" fill="#4D76A1"/>
<path fill-rule="evenodd" clip-rule="evenodd" d="M15.0597 23.1646H16.2881C16.2881 23.1646 16.6591 23.1239 16.8485 22.9197C17.0229 22.7322 17.0173 22.3802 17.0173 22.3802C17.0173 22.3802 16.9933 20.7319 17.7583 20.4892C18.5124 20.2501 19.4807 22.0822 20.5071 22.7866C21.2832 23.3198 21.873 23.2029 21.873 23.2029L24.6173 23.1646C24.6173 23.1646 26.053 23.0762 25.3723 21.9475C25.3165 21.8551 24.9758 21.1125 23.3318 19.5864C21.611 17.9893 21.8415 18.2476 23.9143 15.4848C25.1767 13.8023 25.6814 12.7751 25.5237 12.3351C25.3734 11.9161 24.4449 12.0269 24.4449 12.0269L21.3549 12.0461C21.3549 12.0461 21.1259 12.0149 20.956 12.1164C20.79 12.216 20.6831 12.4481 20.6831 12.4481C20.6831 12.4481 20.1941 13.7501 19.5418 14.8574C18.1659 17.1939 17.6157 17.3172 17.3909 17.1721C16.8678 16.834 16.9983 15.8138 16.9983 15.089C16.9983 12.8248 17.3418 11.8807 16.3296 11.6363C15.9937 11.5551 15.7466 11.5015 14.8876 11.4929C13.785 11.4815 12.8519 11.4962 12.3235 11.7551C11.9719 11.9273 11.7008 12.3109 11.8659 12.3329C12.0701 12.3603 12.5327 12.4576 12.7779 12.7916C13.0946 13.2223 13.0834 14.1898 13.0834 14.1898C13.0834 14.1898 13.2653 16.8552 12.6585 17.1864C12.242 17.4134 11.6706 16.9498 10.444 14.8301C9.81542 13.7443 9.34087 12.5441 9.34087 12.5441C9.34087 12.5441 9.24936 12.3198 9.08616 12.1998C8.88808 12.0545 8.61133 12.0082 8.61133 12.0082L5.67506 12.0274C5.67506 12.0274 5.23427 12.0397 5.07246 12.2314C4.9285 12.4018 5.06102 12.7545 5.06102 12.7545C5.06102 12.7545 7.35982 18.1327 9.96272 20.843C12.3494 23.3279 15.0597 23.1646 15.0597 23.1646Z" fill="white"/>
</svg>
