<svg width="14" height="16" viewBox="0 0 14 16" fill="none" xmlns="http://www.w3.org/2000/svg">
<path d="M11.1961 0.214844C9.8093 0.214844 8.67256 1.35449 8.67256 2.74487C8.67256 3.01436 8.71493 3.27916 8.79388 3.52334L4.62638 5.84658C4.19215 5.49306 3.64202 5.2749 3.04309 5.2749C1.65627 5.2749 0.519531 6.41454 0.519531 7.80492C0.519531 9.19529 1.65627 10.3349 3.04309 10.3349C3.64202 10.3349 4.19215 10.1229 4.62638 9.76933L8.79995 12.0926C8.72058 12.3374 8.67256 12.5947 8.67256 12.865C8.67256 14.2554 9.8093 15.395 11.1961 15.395C12.5829 15.395 13.7197 14.2554 13.7197 12.865C13.7197 11.4746 12.5829 10.3349 11.1961 10.3349C10.4996 10.3349 9.86459 10.6268 9.40657 11.0891L5.34826 8.82666C5.48689 8.51419 5.56664 8.16714 5.56664 7.80492C5.56664 7.4407 5.48832 7.097 5.34826 6.78318L9.40051 4.52075C9.85899 4.98667 10.4965 5.2749 11.1961 5.2749C12.5829 5.2749 13.7197 4.13525 13.7197 2.74487C13.7197 1.35449 12.5829 0.214844 11.1961 0.214844ZM11.1961 1.38255C11.9535 1.38255 12.5549 1.98557 12.5549 2.74487C12.5549 3.50417 11.9535 4.10719 11.1961 4.10719C10.4388 4.10719 9.83727 3.50417 9.83727 2.74487C9.83727 1.98557 10.4388 1.38255 11.1961 1.38255ZM3.04309 6.4426C3.80044 6.4426 4.40192 7.0456 4.40192 7.80492C4.40192 8.56422 3.80044 9.16724 3.04309 9.16724C2.28573 9.16724 1.68425 8.56422 1.68425 7.80492C1.68425 7.0456 2.28573 6.4426 3.04309 6.4426ZM11.1961 11.5027C11.9535 11.5027 12.5549 12.1057 12.5549 12.865C12.5549 13.6243 11.9535 14.2273 11.1961 14.2273C10.4388 14.2273 9.83727 13.6243 9.83727 12.865C9.83727 12.1057 10.4388 11.5027 11.1961 11.5027Z" fill="#333333"/>
</svg>
