<svg width="66" height="66" viewBox="0 0 66 66" fill="none" xmlns="http://www.w3.org/2000/svg">
<circle cx="33" cy="33" r="32.4" stroke="white" stroke-opacity="0.65" stroke-width="1.2"/>
<path d="M32.7118 21.5512L24.2638 28.4633L19.5278 28.9112C18.5358 29.0072 17.7998 29.8393 17.7998 30.7993V37.1993C17.7998 38.1913 18.5358 39.0233 19.5278 39.0873L24.2638 39.5353L32.7118 46.4473C33.4158 47.0233 34.4398 46.5113 34.4398 45.6153V22.3512C34.4078 21.4872 33.3838 20.9752 32.7118 21.5512Z" fill="#C4C4C4"/>
<path d="M40.6798 26.2876C40.4558 25.9996 40.0078 25.9356 39.7198 26.1916L38.5678 27.2156C38.3118 27.4396 38.2798 27.8236 38.5038 28.1116C39.7838 29.7116 40.5518 31.7596 40.5518 33.9676C40.5518 36.1756 39.7838 38.2236 38.5038 39.8236C38.2798 40.0796 38.3118 40.4956 38.5678 40.7196L39.7198 41.7436C40.0078 41.9996 40.4238 41.9676 40.6798 41.6476C42.3758 39.5356 43.3998 36.8476 43.3998 33.9356C43.3998 31.0236 42.4078 28.3996 40.6798 26.2876Z" fill="#C4C4C4"/>
<path d="M44.1998 23.0236C43.9758 22.7356 43.5278 22.7356 43.2718 22.9596L42.1198 24.0156C41.8638 24.2396 41.8318 24.6556 42.0558 24.9116C44.1038 27.3756 45.3198 30.5436 45.3198 33.9676C45.3198 37.3916 44.1038 40.5596 42.0558 43.0236C41.8318 43.3116 41.8638 43.6956 42.1198 43.9196L43.2718 44.9756C43.5278 45.2316 43.9758 45.1996 44.1998 44.9116C46.6958 41.9356 48.1998 38.1276 48.1998 33.9356C48.1998 29.7436 46.6958 25.9996 44.1998 23.0236Z" fill="#C4C4C4"/>
</svg>
