<svg width="66" height="66" viewBox="0 0 66 66" fill="none" xmlns="http://www.w3.org/2000/svg">
<circle cx="33" cy="33" r="32.4" stroke="white" stroke-opacity="0.65" stroke-width="1.2"/>
<path d="M20.081 38.5896L23.0842 38.8834L34.9338 27.0338V21.9087C34.9338 21.0273 33.9219 20.5377 33.2037 21.0926L24.7816 27.9804L20.081 28.4374C19.1017 28.5354 18.3508 29.3515 18.3508 30.3308V36.6963C18.3508 37.6756 19.1017 38.4917 20.081 38.5896Z" fill="#C4C4C4"/>
<path d="M48.8727 19.624L47.3711 18.1224C47.2079 17.9592 46.9468 17.9592 46.7835 18.1224L18.1224 46.7835C17.9592 46.9467 17.9592 47.2079 18.1224 47.3711L19.624 48.8727C19.7872 49.0359 20.0484 49.0359 20.2116 48.8727L27.687 41.3973L33.2038 45.9022C33.8893 46.4571 34.9339 45.9675 34.9339 45.0861V34.1504L39.9937 29.0907C40.6792 30.3964 41.0709 31.8654 41.0709 33.4649C41.0709 35.6847 40.3201 37.7086 39.0144 39.3081C38.7859 39.5693 38.8511 39.961 39.0796 40.1895L40.2222 41.2341C40.516 41.4953 40.9403 41.43 41.1688 41.1362C42.8663 39.047 43.8783 36.3702 43.8783 33.4323C43.8783 31.0819 43.1927 28.8622 42.0502 26.9688L43.4539 25.5652C44.9555 27.8176 45.8369 30.4944 45.8369 33.3996C45.8369 36.8272 44.5964 39.9937 42.5725 42.4419C42.344 42.7031 42.3766 43.0948 42.6378 43.3233L43.7803 44.3679C44.0415 44.6291 44.4659 44.5964 44.727 44.3026C47.2079 41.332 48.6769 37.5454 48.6769 33.3996C48.6769 29.7109 47.5017 26.316 45.5104 23.5086L48.9054 20.1137C49.036 20.0484 49.0359 19.7872 48.8727 19.624Z" fill="#C4C4C4"/>
</svg>
