<svg width="288" height="146" viewBox="0 0 288 146" fill="none" xmlns="http://www.w3.org/2000/svg">
<path fill-rule="evenodd" clip-rule="evenodd" d="M105.941 128.556C117.616 128.556 127.081 119.092 127.081 107.416C127.081 95.7405 117.616 86.2757 105.941 86.2757C94.2654 86.2757 84.8006 95.7405 84.8006 107.416C84.8006 119.092 94.2654 128.556 105.941 128.556ZM105.941 145.902C127.196 145.902 144.427 128.672 144.427 107.416C144.427 86.1606 127.196 68.9297 105.941 68.9297C84.6855 68.9297 67.4546 86.1606 67.4546 107.416C67.4546 128.672 84.6855 145.902 105.941 145.902Z" fill="#A0A1A2"/>
<path fill-rule="evenodd" clip-rule="evenodd" d="M248.668 128.556C260.344 128.556 269.808 119.092 269.808 107.416C269.808 95.7405 260.344 86.2757 248.668 86.2757C236.992 86.2757 227.528 95.7405 227.528 107.416C227.528 119.092 236.992 128.556 248.668 128.556ZM248.668 145.902C269.923 145.902 287.154 128.672 287.154 107.416C287.154 86.1606 269.923 68.9297 248.668 68.9297C227.413 68.9297 210.182 86.1606 210.182 107.416C210.182 128.672 227.413 145.902 248.668 145.902Z" fill="#A0A1A2"/>
<path fill-rule="evenodd" clip-rule="evenodd" d="M1.32338 87.3612L0.239258 89.5294V94.408H46.3145L52.8192 103.352H64.4736C70.3278 72.7797 93.4739 65.8594 104.315 66.2208C140.525 66.0039 147.77 95.4017 146.867 110.128H151.474L155.811 115.819H161.503L172.073 112.025V119.072H185.624L194.297 112.025H207.578C205.193 89.9089 221.039 75.8875 229.26 71.6414C250.292 58.4151 271.631 72.0931 279.672 80.5854L282.653 78.1461C270.294 63.8357 254.014 61.3422 247.419 61.8843C228.339 61.4506 212.908 77.6041 207.578 85.735L198.363 76.5199L194.297 80.5854H187.251V78.1461L194.297 75.4358V70.2862H198.363V65.4077H190.503V43.4542C190.286 39.7682 187.16 38.1239 185.624 37.7625H171.288V66.4936H117.624L110.035 65.6805V37.2222H111.932V62.9702H123.857V35.8674H122.47L119.76 33.1571H123.857V33.1568L123.858 33.1571H149.844L147.134 35.8674H126.568V59.7178H151.232V35.8671L153.942 33.1568V62.9702H167.493V37.7625H165.839V27.1923H168.278V19.8745H164.213V5.23884L161.503 2.52853H105.941L102.147 6.32296L104.315 8.49121V35.0522H100.521L96.7262 29.9026V21.7717H98.3524V0.902344H92.6608V29.9026L88.3243 37.7625L3.76266 45.3514V87.3612H1.32338ZM33.0626 52.1288H35.2309V88.4469H33.0626V52.1288ZM46.072 63.5125H43.9038V77.0641H46.072V63.5125ZM49.8679 63.5125H52.0362V77.0641H49.8679V63.5125ZM57.9973 63.5125H55.8291V77.0641H57.9973V63.5125ZM61.7932 63.5125H63.9615V77.0641H61.7932V63.5125ZM69.9226 63.5125H67.7543V77.0641H69.9226V63.5125ZM73.7185 63.5125H75.8867V77.0641H73.7185V63.5125ZM90.5208 54.2971V52.1288L40.109 52.1288V54.2971H90.5208ZM107.867 60.8007V63.511H99.7357V60.8007H107.867ZM107.867 58.634V55.9237H99.7357V58.634H107.867ZM107.867 51.0447V53.755H99.7357V51.0447H107.867ZM107.867 48.8765V46.1662H99.7357V48.8765H107.867ZM115.186 7.9511L112.747 9.57728V29.6336H121.962V29.3645H147.409L149.306 26.1122V8.49515H122.474L121.553 10.0312L120.607 7.9511H115.186ZM152.286 29.0915V8.22212H157.165C160.417 8.22212 161.23 10.9324 161.23 12.2876V29.0915H152.286ZM24.0887 58.6325V56.4643H9.45302V58.6325H24.0887ZM24.0887 63.5125V65.6807H9.45302V63.5125H24.0887ZM24.0887 79.2307V77.0625H9.45302V79.2307H24.0887ZM24.0887 84.1108V86.2791H9.45302V84.1108H24.0887ZM7.55592 67.5779H11.0793L12.9765 70.0172H23.5467V72.9985H12.9765L11.0793 74.8958H7.55592V67.5779Z" fill="#A0A1A2"/>
<circle cx="105.552" cy="108.263" r="10.0704" fill="#A0A1A2"/>
<circle cx="249.091" cy="108.263" r="10.0704" fill="#A0A1A2"/>
</svg>
