<svg width="140" height="74" viewBox="0 0 140 74" fill="none" xmlns="http://www.w3.org/2000/svg">
<path fill-rule="evenodd" clip-rule="evenodd" d="M13.6738 11.1017V31.8901V33.305C14.6316 32.6084 19.007 32.3617 21.0749 32.3255C21.8859 32.3428 22.6679 32.3937 23.4217 32.4756V15.0185H24.1836V32.5702C28.3597 33.1545 31.6373 34.7129 34.1839 36.7803L33.7433 34.0724L47.7413 31.7948L47.7513 31.7932L47.7513 31.7933C49.5891 31.5069 50.9979 31.6481 52.034 32.1236C53.0105 32.5717 53.6751 33.3443 53.8466 34.2227C54.2826 35.6605 53.6481 36.8247 52.9148 37.5387C52.206 38.229 51.2974 38.641 50.6808 38.8306L50.5753 38.863L50.4663 38.8797L38.3874 40.7235L37.9347 37.7578L49.8909 35.9327C50.2016 35.8233 50.5822 35.6228 50.8219 35.3894C50.943 35.2715 50.9765 35.1951 50.9838 35.1729C50.9848 35.1697 50.9855 35.1671 50.986 35.1648C50.9868 35.1608 50.987 35.1577 50.9869 35.154C50.9868 35.1479 50.9859 35.1212 50.9677 35.0686L50.9177 34.9245C50.8891 34.9048 50.8459 34.8792 50.7827 34.8502C50.472 34.7076 49.7184 34.5236 48.218 34.7567L34.4465 36.9974C40.0917 41.7518 42.0272 49.0268 42.1898 53.4403H47.7406V53.9845H48.2848V52.7873H49.482L51.4411 53.9845L52.5295 51.9166H53.5091L55.1417 53.4403H57.645V54.5287H61.4126V53.6093L62.1744 53.3916V52.1944H61.4126V50.9972H62.1744V50.2353H61.4126V48.1674H63.154V53.6093L62.7186 53.827V54.3863L63.5223 53.9845H64.8959V48.0585H65.7666L65.4434 53.9845H67.2885V48.1674H67.9415L67.6645 53.9845H75.3858C74.428 53.375 73.5355 49.5221 73.209 47.6718C72.1641 38.7034 73.6806 32.398 74.8416 30.4752L79.5217 22.8564V19.047L81.372 15.3465L83.1134 11.8636L93.7797 13.6051C96.653 14.0404 95.4123 12.6255 94.4327 11.8636L74.5151 0.435462C72.5995 -0.174038 72.8462 1.12478 73.209 1.85038L76.583 5.2244H56.6654L56.2301 4.78904H52.9649L52.5295 5.2244H33.918L33.4826 4.78904H31.5235L30.8705 5.55092H21.0749L19.7688 2.17689H15.7418V4.24484L13.6738 7.51003V11.1017ZM27.6652 17.4129H26.1414V24.5963H27.6652V17.4129ZM55.8572 18.0683L52.5921 21.2247V22.4219H61.0815V23.6191H60.755V25.9048H61.0815V27.3197H60.755V32.7617C61.4516 31.8039 62.8592 32.5802 63.476 33.0882L64.6732 33.7412L64.8909 46.4754H66.0882V34.2854H67.1765V46.4754H68.0473L68.8091 34.2854C70.9859 34.1983 71.8204 32.7979 71.9655 32.1086C72.3138 29.8448 70.6594 27.9727 69.7887 27.3197V31.1291C69.4404 31.9127 69.1357 31.8184 69.0268 31.6733V30.5849H67.2854V31.9998C66.5888 32.5222 65.3988 32.2175 64.8909 31.9998V30.5849H62.7141V31.4556C62.7141 32.0651 62.2062 31.4919 61.9523 31.1291V22.9661L61.5169 21.5512H62.2788C62.1917 19.6356 62.823 18.2134 63.1495 17.7418H58.5782C59.7102 20.7022 58.3968 21.2972 57.5987 21.2247C56.2055 21.2247 55.8572 19.1204 55.8572 18.0683ZM80.0186 4.89922L83.5015 9.68816L83.3926 6.64065L80.0186 4.89922ZM86.8747 8.92377L84.5891 7.29118L84.4802 10.121L86.8747 8.92377ZM86.224 10.8828L88.6185 9.57673L91.9925 11.5358L86.224 10.8828ZM83.0679 10.6168L80.1292 7.56932L80.4558 15.6234L83.0679 10.6168ZM50.9658 34.9654L50.9662 34.9656C50.9665 34.9655 50.9645 34.9628 50.9597 34.958L50.9627 34.962L50.9643 34.9639L50.9658 34.9654ZM31.855 15.079H33.1136C32.7653 15.4272 33.6941 16.6027 34.202 17.1469H36.3788V16.7116H45.4125V18.5618H43.4534H42.0384H40.95H34.202L32.6782 16.1674H31.3722V15.6584L31.3105 15.7323L30.331 14.6439H14.5492V14.3174H30.7663L31.3105 15.0793L33.3785 12.1406V5.82795H34.0315V12.4672L31.855 15.079ZM48.5688 5.71912H47.6981V16.6031H48.5688V5.71912ZM65.5471 5.71912H66.2001V16.6027H68.1607V17.2557H58.3652V16.6027H65.5471V5.71912ZM42.4734 20.5207H51.8336V22.2622H42.4734V20.5207ZM51.8336 19.4348H42.4734V20.3055H51.8336V19.4348ZM42.4734 27.3797V25.7471C45.9563 23.5704 50.1647 24.8401 51.8336 25.7471V27.3797H42.4734ZM42.584 22.6974H51.8354V24.9831C50.3116 24.1849 46.3281 23.0675 42.584 24.9831V22.6974ZM49.4383 16.6027H56.6217V17.2557H49.4383V16.6027ZM42.2546 32.1663H33.7651C32.8943 31.8398 33.3297 31.3681 33.5474 31.1867H42.2546C44.6926 31.0126 45.5198 29.0825 45.6286 28.1392H46.8259C46.3034 31.0996 43.5607 32.0574 42.2546 32.1663ZM41.9304 44.2493H44.8691V44.9024H45.8487V44.2493H49.4404V44.9024H50.2022V44.2493H53.6851V44.9024H54.5558V44.2493H58.0387V44.9024H59.0182V44.2493H62.5011V43.1609H59.7801V42.3991H58.8006V43.1609H55.3177V42.3991H54.1205V43.1609H51.2906V42.3991H49.9846V43.1609H46.6105V42.3991H45.4133V43.1609H41.4951L41.9304 44.2493ZM41.3859 23.7858H34.8555V25.0919H41.3859V23.7858ZM53.3594 23.7858H59.8897V25.0919H53.3594V23.7858ZM70.2264 23.0241H74.7977L75.7772 21.6092L77.4098 19.8677V23.0241C77.4098 23.9673 76.9527 25.8757 75.1242 25.9627H71.859V27.813C71.3511 27.2325 70.2482 26.1151 69.8999 26.2892V23.0241H70.2264ZM31.3735 24.2236V26.1827L29.3055 30.1009L32.353 29.1214V26.1827L32.8972 25.312V23.1352H31.9177L31.3735 24.2236ZM42.3653 28.1392H43.236C43.0546 28.756 42.2129 30.033 40.2973 30.2072H32.7874C32.0618 30.2072 30.4147 30.4901 29.631 31.6221C29.4134 31.5858 29.0651 31.4044 29.4134 30.969C29.7036 30.4611 30.9153 29.4671 33.4404 29.5541H40.2973C40.9141 29.4453 42.1911 29.0099 42.3653 28.1392Z" fill="#A0A1A2"/>
<path d="M108.91 70.7011L109.353 70.2583C112.63 70.2583 119.354 68.1179 122.306 66.7155C135.237 58.6556 136.551 44.7576 135.592 38.816C133.998 24.5563 120.83 17.67 114.446 16.0093L114.999 12.9094C119.428 12.2895 123.561 16.5629 125.074 18.7772L126.181 17.2273C128.838 17.0502 132.234 23.9439 133.599 27.4128L135.038 26.3057C136.544 25.8629 137.363 33.7234 137.585 37.7091H139.356C140.419 41.9604 138.027 47.9684 136.699 50.441L138.802 50.8838C140.042 53.5409 134.448 59.0765 131.495 61.5122L132.603 63.505C132.691 65.9849 124.816 68.4501 120.867 69.3727C120.83 69.8894 120.778 71.0777 120.867 71.6977C120.956 72.3177 114.003 73.801 108.91 70.7011Z" fill="#A0A1A2"/>
<path d="M103.706 15.6769V12.7984C109.374 11.3813 113.227 14.4222 114.445 16.1197C109.573 14.8798 105.256 15.3078 103.706 15.6769Z" fill="#A0A1A2"/>
<path d="M111.689 70.2476L111.573 73.1238C105.852 74.311 102.125 71.1171 100.977 69.3718C105.794 70.8073 110.125 70.5538 111.689 70.2476Z" fill="#A0A1A2"/>
<path d="M105.672 14.2373L107.775 15.4556C104.498 15.4556 96.0464 18.2604 93.0941 19.6628C80.1629 27.7227 78.8491 41.6207 79.8086 47.5623C81.4029 61.822 93.7519 67.4903 100.136 69.151L99.0291 72.5825C93.9364 71.9182 91.8394 69.8154 90.3263 67.6011L89.2192 69.151C86.5621 69.3281 83.1669 62.4344 81.8015 58.9655L80.3622 60.0726C78.8565 60.5154 78.0372 52.6549 77.8158 48.6692H76.0444C74.9816 44.4179 77.373 38.4099 78.7015 35.9373L76.598 35.4945C75.358 32.8374 80.9527 27.3018 83.905 24.8661L82.7979 22.8733C82.7093 20.3934 89.7662 18.1491 93.715 17.2265C93.7519 16.7098 92.3643 16.0756 92.2757 15.4556C92.1871 14.8356 97.3685 13.1301 105.672 14.2373Z" fill="#A0A1A2"/>
<path d="M116.079 18.8877L109.908 34.9305L113.85 36.6016L120.536 20.3917L116.079 18.8877Z" fill="#A0A1A2"/>
<path d="M104.435 49.6665L98.3926 66.3109L102.253 68.0447L108.8 51.2269L104.435 49.6665Z" fill="#A0A1A2"/>
<path d="M113.007 43.024C113.007 45.3474 111.124 47.231 108.8 47.231C106.477 47.231 104.593 45.3474 104.593 43.024C104.593 40.7005 106.477 38.8169 108.8 38.8169C111.124 38.8169 113.007 40.7005 113.007 43.024Z" fill="#A0A1A2"/>
<path fill-rule="evenodd" clip-rule="evenodd" d="M108.91 49.8879C112.762 49.8879 115.885 46.7651 115.885 42.913C115.885 39.0609 112.762 35.9382 108.91 35.9382C105.058 35.9382 101.935 39.0609 101.935 42.913C101.935 46.7651 105.058 49.8879 108.91 49.8879ZM108.91 51.4378C113.618 51.4378 117.435 47.6212 117.435 42.913C117.435 38.2049 113.618 34.3882 108.91 34.3882C104.202 34.3882 100.385 38.2049 100.385 42.913C100.385 47.6212 104.202 51.4378 108.91 51.4378Z" fill="#A0A1A2"/>
<path fill-rule="evenodd" clip-rule="evenodd" d="M106.889 69.3722C121.381 69.3722 133.128 57.6247 133.128 43.1335C133.128 28.6422 121.381 16.8947 106.889 16.8947C92.3981 16.8947 80.6506 28.6422 80.6506 43.1335C80.6506 57.6247 92.3981 69.3722 106.889 69.3722ZM106.889 70.9222C122.237 70.9222 134.678 58.4808 134.678 43.1335C134.678 27.7862 122.237 15.3447 106.889 15.3447C91.542 15.3447 79.1006 27.7862 79.1006 43.1335C79.1006 58.4808 91.542 70.9222 106.889 70.9222Z" fill="#A0A1A2"/>
<path d="M101.909 36.6566L87.3662 26.1943L84.8589 29.6818L99.7356 40.1441L101.909 36.6566Z" fill="#A0A1A2"/>
<path d="M108.488 34.9586L104.054 17.9585L99.9697 19.2067L104.657 36.4076L108.488 34.9586Z" fill="#A0A1A2"/>
<path d="M118.84 66.7316L113.674 49.4782L109.544 50.581L114.977 68.0456L118.84 66.7316Z" fill="#A0A1A2"/>
<path d="M98.9658 41.2272L81.4937 40.5336L81.6042 44.8171L99.3359 45.3266L98.9658 41.2272Z" fill="#A0A1A2"/>
<path d="M116.988 40.8824L134.678 40.7861L134.711 45.0235L116.751 44.9287L116.988 40.8824Z" fill="#A0A1A2"/>
<path d="M128.451 26.8173L113.396 36.5423L116.13 40.0286L131.288 29.9977L128.451 26.8173Z" fill="#A0A1A2"/>
<path d="M100.126 45.4608L84.7566 56.1154L87.4357 59.762L102.917 48.7802L100.126 45.4608Z" fill="#A0A1A2"/>
<path d="M130.72 55.9203L116.555 45.458L114.113 48.9454L128.603 59.4077L130.72 55.9203Z" fill="#A0A1A2"/>
<path d="M27.0208 37.2812L23.1025 48.3213L25.6058 49.4713L29.8506 38.3163L27.0208 37.2812Z" fill="#A0A1A2"/>
<path d="M17.8162 56.6567L13.8979 68.091L16.4013 69.2821L20.646 57.7287L17.8162 56.6567Z" fill="#A0A1A2"/>
<path d="M23.042 53.0625C23.042 54.3248 22.0186 55.3481 20.7563 55.3481C19.494 55.3481 18.4707 54.3248 18.4707 53.0625C18.4707 51.8002 19.494 50.7769 20.7563 50.7769C22.0186 50.7769 23.042 51.8002 23.042 53.0625Z" fill="#A0A1A2"/>
<path fill-rule="evenodd" clip-rule="evenodd" d="M20.7557 56.4368C22.6191 56.4368 24.1297 54.9262 24.1297 53.0628C24.1297 51.1994 22.6191 49.6888 20.7557 49.6888C18.8923 49.6888 17.3817 51.1994 17.3817 53.0628C17.3817 54.9262 18.8923 56.4368 20.7557 56.4368ZM20.7557 57.9606C23.4607 57.9606 25.6535 55.7678 25.6535 53.0628C25.6535 50.3578 23.4607 48.165 20.7557 48.165C18.0507 48.165 15.8579 50.3578 15.8579 53.0628C15.8579 55.7678 18.0507 57.9606 20.7557 57.9606Z" fill="#A0A1A2"/>
<path d="M17.5982 49.2534L8.12917 42.3965L6.49658 44.6821L16.1833 51.539L17.5982 49.2534Z" fill="#A0A1A2"/>
<path d="M20.7537 48.3585L17.4066 36.9429L14.6726 37.6901L18.1946 49.2447L20.7537 48.3585Z" fill="#A0A1A2"/>
<path d="M27.3768 68.6945L23.5633 56.8908L20.7445 57.5765L24.7439 69.5279L27.3768 68.6945Z" fill="#A0A1A2"/>
<path d="M16.3856 51.8951L3.98786 51.7363L3.98667 54.7211L16.5723 54.7466L16.3856 51.8951Z" fill="#A0A1A2"/>
<path d="M27.2808 51.9227L39.1652 51.7773L39.1679 54.6374L27.1034 54.6549L27.2808 51.9227Z" fill="#A0A1A2"/>
<path d="M35.2105 42.8253L25.3227 49.6797L27.0462 52.0256L37.0055 44.9607L35.2105 42.8253Z" fill="#A0A1A2"/>
<path d="M16.2666 54.8214L6.37882 61.6757L8.10237 64.0217L18.0617 56.9568L16.2666 54.8214Z" fill="#A0A1A2"/>
<path d="M36.8174 61.4977L27.3484 54.4775L25.7158 56.8176L35.4025 63.8377L36.8174 61.4977Z" fill="#A0A1A2"/>
<path fill-rule="evenodd" clip-rule="evenodd" d="M20.5371 70.3686C29.9745 70.3686 37.6249 62.7181 37.6249 53.2808C37.6249 43.8434 29.9745 36.193 20.5371 36.193C11.0998 36.193 3.44933 43.8434 3.44933 53.2808C3.44933 62.7181 11.0998 70.3686 20.5371 70.3686ZM20.5371 71.2393C30.4553 71.2393 38.4956 63.199 38.4956 53.2808C38.4956 43.3626 30.4553 35.3223 20.5371 35.3223C10.6189 35.3223 2.57861 43.3626 2.57861 53.2808C2.57861 63.199 10.6189 71.2393 20.5371 71.2393Z" fill="#A0A1A2"/>
<path fill-rule="evenodd" clip-rule="evenodd" d="M20.5377 71.6748C30.6964 71.6748 38.9316 63.4396 38.9316 53.2809C38.9316 43.1222 30.6964 34.887 20.5377 34.887C10.3791 34.887 2.14387 43.1222 2.14387 53.2809C2.14387 63.4396 10.3791 71.6748 20.5377 71.6748ZM20.5377 73.1985C31.5379 73.1985 40.4554 64.2811 40.4554 53.2809C40.4554 42.2807 31.5379 33.3633 20.5377 33.3633C9.53754 33.3633 0.620117 42.2807 0.620117 53.2809C0.620117 64.2811 9.53754 73.1985 20.5377 73.1985Z" fill="#A0A1A2"/>
</svg>
