<svg width="140" height="83" viewBox="0 0 140 83" fill="none" xmlns="http://www.w3.org/2000/svg">
<path fill-rule="evenodd" clip-rule="evenodd" d="M12.2019 49.9342C14.4192 49.7048 19.0602 49.4984 19.886 50.5076V49.9342L26.8819 49.4755V50.5076H31.1254V49.4755H33.3045V50.9665H36.7451L37.7773 53.8336L42.2501 57.1596L51.8839 58.1918L52.572 61.5177H61.8617V56.0127L62.4351 55.0952H65.8758V58.1918H70.8073L75.3948 50.049H80.8998C80.7469 46.379 82.0008 38.0756 88.2398 34.2221L93.2861 28.8317L93.7449 18.9686L92.4833 17.363H90.763L89.6161 18.9686V27.6849H88.2398V22.1789H69.3173V19.1971H88.2398V17.363L87.7811 16.1014H101.773L104.181 20.9183H98.6764V27.6849C109.534 26.041 131.775 28.3959 133.886 50.9665H139.62V45.2321C137.9 37.1275 128.885 20.9183 106.59 20.9183V5.89421C106.246 5.43546 105.282 4.79321 104.181 5.89421V7.61454L101.773 13.0049H31.1254V3.3711H32.0429V0.503906H26.8819V3.3711H28.0288V13.0049H25.0469H21.6063V16.1014H17.8216L16.5601 15.528V14.7252H15.7572V15.528L13.4635 17.7071V38.4655H6.00879V40.4152H13.4635V45.5762L12.546 46.4937L12.2019 49.9342ZM28.947 26.9967H27.8001V38.2361H28.947V26.9967ZM27.8001 39.3829H28.947V42.1354H27.8001V39.3829ZM28.947 23.7857H27.8001V26.5382H28.947V23.7857ZM33.7643 15.9861H75.74V17.1329H33.7643V15.9861ZM90.6492 28.8322H69.3173V29.979H90.6492V28.8322ZM36.2875 29.9777H37.6638V45.1165H36.2875V29.9777ZM40.1849 29.9777H38.8086V42.1346H40.1849V29.9777ZM40.1866 28.372H36.9753V23.3258H44.2006V24.2432H42.3656C40.4389 24.0597 40.1101 26.9192 40.1866 28.372ZM21.1501 23.3258H26.311V24.9314H22.641V44.0842L23.5585 45.1164H29.0635V46.8368H22.641C22.4117 46.4162 21.6089 45.5522 20.2326 45.4605V23.3258H21.1501ZM44.0856 25.849H66.1056V33.6478H44.0856V25.849ZM68.1717 38.2352H72.9886V47.6396H68.1717V38.2352ZM77.5744 39.1529H74.1338V47.6398H77.5744V39.1529Z" fill="#A0A1A2"/>
<path d="M18.5113 66.6775C18.5113 67.9443 17.4844 68.9713 16.2176 68.9713C14.9508 68.9713 13.9238 67.9443 13.9238 66.6775C13.9238 65.4107 14.9508 64.3838 16.2176 64.3838C17.4844 64.3838 18.5113 65.4107 18.5113 66.6775Z" fill="#A0A1A2"/>
<path fill-rule="evenodd" clip-rule="evenodd" d="M16.2161 70.8072C18.4963 70.8072 20.3448 68.9587 20.3448 66.6785C20.3448 64.3982 18.4963 62.5497 16.2161 62.5497C13.9358 62.5497 12.0873 64.3982 12.0873 66.6785C12.0873 68.9587 13.9358 70.8072 16.2161 70.8072ZM16.2161 72.8716C19.6365 72.8716 22.4092 70.0989 22.4092 66.6785C22.4092 63.2581 19.6365 60.4854 16.2161 60.4854C12.7957 60.4854 10.0229 63.2581 10.0229 66.6785C10.0229 70.0989 12.7957 72.8716 16.2161 72.8716Z" fill="#A0A1A2"/>
<path fill-rule="evenodd" clip-rule="evenodd" d="M16.103 80.2113C23.5138 80.2113 29.5214 74.2037 29.5214 66.7929C29.5214 59.3821 23.5138 53.3744 16.103 53.3744C8.69214 53.3744 2.68449 59.3821 2.68449 66.7929C2.68449 74.2037 8.69214 80.2113 16.103 80.2113ZM16.103 82.2757C24.6539 82.2757 31.5858 75.3438 31.5858 66.7929C31.5858 58.242 24.6539 51.3101 16.103 51.3101C7.55202 51.3101 0.620117 58.242 0.620117 66.7929C0.620117 75.3438 7.55202 82.2757 16.103 82.2757Z" fill="#A0A1A2"/>
<path d="M14.8398 80.4417V72.4136H17.8217V80.4417H14.8398Z" fill="#A0A1A2"/>
<path d="M14.8398 60.9437V52.9155H17.8217V60.9437H14.8398Z" fill="#A0A1A2"/>
<path d="M10.2537 67.8255H2.22559V65.6465H10.2537V67.8255Z" fill="#A0A1A2"/>
<path d="M11.3228 63.7454L5.89573 57.8295L7.50146 56.3564L12.9286 62.2723L11.3228 63.7454Z" fill="#A0A1A2"/>
<path d="M27.4933 77.0491L22.0661 71.1332L23.6719 69.6602L29.099 75.576L27.4933 77.0491Z" fill="#A0A1A2"/>
<path d="M5.43792 75.2899L11.1607 69.6596L12.689 71.2129L6.96615 76.8432L5.43792 75.2899Z" fill="#A0A1A2"/>
<path d="M21.6098 61.9857L27.3326 56.3553L28.8608 57.9087L23.1381 63.539L21.6098 61.9857Z" fill="#A0A1A2"/>
<path d="M32.39 67.8255H24.3618V65.6465H32.39V67.8255Z" fill="#A0A1A2"/>
<path fill-rule="evenodd" clip-rule="evenodd" d="M106.067 77.0005C117.531 77.0005 126.825 67.7066 126.825 56.242C126.825 44.7775 117.531 35.4836 106.067 35.4836C94.6022 35.4836 85.3083 44.7775 85.3083 56.242C85.3083 67.7066 94.6022 77.0005 106.067 77.0005ZM106.067 79.5236C118.925 79.5236 129.348 69.1001 129.348 56.242C129.348 43.384 118.925 32.9604 106.067 32.9604C93.2087 32.9604 82.7852 43.384 82.7852 56.242C82.7852 69.1001 93.2087 79.5236 106.067 79.5236Z" fill="#A0A1A2"/>
<path fill-rule="evenodd" clip-rule="evenodd" d="M106.642 64.8259C111.308 64.8259 115.091 61.0432 115.091 56.3768C115.091 51.7104 111.308 47.9277 106.642 47.9277C101.976 47.9277 98.1929 51.7104 98.1929 56.3768C98.1929 61.0432 101.976 64.8259 106.642 64.8259ZM106.642 59.3749C108.298 59.3749 109.64 58.0326 109.64 56.3768C109.64 54.721 108.298 53.3788 106.642 53.3788C104.986 53.3788 103.644 54.721 103.644 56.3768C103.644 58.0326 104.986 59.3749 106.642 59.3749Z" fill="#A0A1A2"/>
<path d="M105.824 33.3849V49.1203H108.347V33.3849L107.026 29.394L105.824 33.3849Z" fill="#A0A1A2"/>
<path d="M126.984 43.9012L113.369 51.9035L114.586 53.9753L128.202 45.973L131.017 42.8582L126.984 43.9012Z" fill="#A0A1A2"/>
<path d="M87.2178 43.45L100.833 51.4523L99.6152 53.5241L86 45.5219L83.1848 42.407L87.2178 43.45Z" fill="#A0A1A2"/>
<path d="M83.1051 55.0137L98.8405 55.0137L98.8405 57.3074L83.1051 57.3074L79.1143 56.1059L83.1051 55.0137Z" fill="#A0A1A2"/>
<path d="M130.519 55.0137L114.784 55.0137L114.784 57.3074L130.519 57.3074L134.51 56.1059L130.519 55.0137Z" fill="#A0A1A2"/>
<path d="M96.8087 36.1488L104.599 49.8865L102.508 51.072L94.7182 37.3342L93.8375 33.229L96.8087 36.1488Z" fill="#A0A1A2"/>
<path d="M118.5 35.7508L110.71 49.4886L112.801 50.674L120.591 36.9362L121.472 32.8311L118.5 35.7508Z" fill="#A0A1A2"/>
<path d="M105.824 77.8353V62.0999H108.347V77.8353L107.026 81.8262L105.824 77.8353Z" fill="#A0A1A2"/>
<path d="M85.8379 66.2859L99.4531 58.2836L100.671 60.3555L87.0556 68.3577L82.9646 69.302L85.8379 66.2859Z" fill="#A0A1A2"/>
<path d="M128.172 66.239L114.557 58.2368L113.339 60.3086L126.954 68.3109L131.045 69.2552L128.172 66.239Z" fill="#A0A1A2"/>
<path d="M120.134 74.8732L112.344 61.1354L110.253 62.3209L118.043 76.0586L121.114 78.9219L120.134 74.8732Z" fill="#A0A1A2"/>
<path d="M94.1725 75.2926L101.962 61.5549L104.053 62.7403L96.263 76.4781L93.1923 79.3413L94.1725 75.2926Z" fill="#A0A1A2"/>
</svg>
