<svg width="48" height="36" viewBox="0 0 48 36" fill="none" xmlns="http://www.w3.org/2000/svg">
<path d="M46.8009 5.12379H44.2339V0.708008C42.2781 2.8789 34.8145 3.66524 31.1583 3.92986C26.1486 4.2923 24.6821 6.40049 24.6821 6.40049C24.6821 9.92207 24.6821 31.6661 24.6821 31.6661C27.6152 31.6661 35.6939 31.2209 38.369 30.2188C42.6453 28.6173 44.2339 26.3599 44.2339 26.3599V7.29342H45.6991V32.4963H2.19981V7.29342H3.66508V26.3599C3.66508 26.3599 5.25362 28.6173 9.52997 30.2188C12.2051 31.2209 20.2838 31.6661 23.2168 31.6661C23.2168 31.6661 23.2168 9.92332 23.2168 6.40049C23.2168 6.40049 21.7516 4.29105 16.7407 3.92986C13.0845 3.66524 5.62089 2.8789 3.66508 0.708008V5.12379H1.10054C0.491812 5.12379 0 5.61039 0 6.2086V34.4264C0 35.0259 0.493083 35.5125 1.10054 35.5125H46.8022C47.4097 35.5125 47.9015 35.0259 47.9015 34.4264V6.2086C47.9015 5.60913 47.4084 5.12379 46.8009 5.12379ZM41.6935 23.1481C41.5956 23.1857 39.2268 24.0937 33.5843 24.88C29.4287 25.4594 28.243 26.8402 28.2036 26.8879C28.0613 27.0773 27.8401 27.1788 27.6165 27.1788C27.4678 27.1788 27.3191 27.1349 27.1895 27.0434C26.8603 26.8101 26.7841 26.3586 27.0204 26.0338C27.1602 25.8394 28.5327 24.1238 33.3797 23.4466C38.815 22.6891 41.1343 21.8099 41.1559 21.8011C41.5321 21.6557 41.9591 21.8388 42.1065 22.21C42.2539 22.5812 42.0696 23.0013 41.6935 23.1481ZM41.6935 17.7252C41.5956 17.7629 39.2268 18.6696 33.5843 19.4572C29.4287 20.0366 28.243 21.4174 28.2036 21.465C28.0613 21.6544 27.8401 21.756 27.6165 21.756C27.4678 21.756 27.3191 21.7121 27.1895 21.6206C26.8603 21.3873 26.7841 20.9358 27.0204 20.611C27.1602 20.4178 28.5327 18.7009 33.3797 18.025C38.815 17.2675 41.1343 16.3883 41.1559 16.3796C41.5321 16.2328 41.9591 16.4172 42.1065 16.7897C42.2539 17.1596 42.0696 17.5785 41.6935 17.7252ZM41.6935 12.3037C41.5956 12.3413 39.2268 13.248 33.5843 14.0356C29.4287 14.615 28.243 15.9958 28.2036 16.0435C28.0613 16.2328 27.8401 16.3344 27.6165 16.3344C27.4678 16.3344 27.3191 16.2905 27.1895 16.199C26.8603 15.9657 26.7841 15.5142 27.0204 15.1894C27.1602 14.9963 28.5327 13.2794 33.3797 12.6034C38.815 11.8459 41.1343 10.9668 41.1559 10.958C41.5321 10.8125 41.9591 10.9956 42.1065 11.3668C42.2539 11.738 42.0696 12.1569 41.6935 12.3037ZM41.6935 6.88081C41.5956 6.91969 39.2268 7.82643 33.5843 8.61276C29.4287 9.19217 28.243 10.5717 28.2036 10.6206C28.0613 10.81 27.8401 10.9103 27.6165 10.9103C27.4678 10.9103 27.3191 10.8664 27.1895 10.7749C26.8603 10.5429 26.7841 10.0901 27.0204 9.76531C27.1602 9.57092 28.5327 7.85527 33.3797 7.1793C38.815 6.42055 41.1343 5.54266 41.1559 5.53388C41.5321 5.38841 41.9591 5.57151 42.1065 5.94273C42.2539 6.3152 42.0696 6.73534 41.6935 6.88081ZM5.795 5.94398C5.94241 5.57276 6.36814 5.38966 6.74431 5.53514C6.76718 5.54392 9.08518 6.4218 14.5218 7.18055C19.3675 7.85652 20.74 9.57217 20.881 9.76656C21.1174 10.0914 21.0412 10.5441 20.7108 10.7761C20.5811 10.8677 20.4324 10.9116 20.285 10.9116C20.0601 10.9116 19.839 10.8112 19.6966 10.6219C19.6572 10.573 18.4715 9.19468 14.3159 8.61402C8.6747 7.82768 6.3046 6.91969 6.20675 6.88207C5.83058 6.73534 5.64631 6.3152 5.795 5.94398ZM5.795 11.3668C5.94241 10.9956 6.36814 10.8125 6.74431 10.958C6.76718 10.9668 9.08518 11.8459 14.5218 12.6034C19.3675 13.2794 20.74 14.9963 20.881 15.1894C21.1174 15.5142 21.0412 15.967 20.7108 16.199C20.5811 16.2905 20.4324 16.3344 20.285 16.3344C20.0601 16.3344 19.839 16.2328 19.6966 16.0435C19.6572 15.9958 18.4715 14.615 14.3159 14.0356C8.6747 13.2493 6.3046 12.3413 6.20675 12.3037C5.83058 12.1569 5.64631 11.738 5.795 11.3668ZM5.795 16.7884C5.94241 16.4159 6.36814 16.2328 6.74431 16.3783C6.76718 16.3871 9.08518 17.2662 14.5218 18.0237C19.3675 18.6997 20.74 20.4166 20.881 20.6097C21.1174 20.9345 21.0412 21.3873 20.7108 21.6193C20.5811 21.7109 20.4324 21.7547 20.285 21.7547C20.0601 21.7547 19.839 21.6532 19.6966 21.4638C19.6572 21.4161 18.4715 20.0366 14.3159 19.4559C8.6747 18.6696 6.3046 17.7616 6.20675 17.724C5.83058 17.5785 5.64631 17.1596 5.795 16.7884ZM5.795 22.21C5.94241 21.8388 6.36814 21.6557 6.74431 21.8011C6.76718 21.8099 9.08518 22.6891 14.5218 23.4466C19.3675 24.1225 20.74 25.8394 20.881 26.0338C21.1174 26.3586 21.0412 26.8101 20.7108 27.0434C20.5811 27.1349 20.4324 27.1788 20.285 27.1788C20.0601 27.1788 19.839 27.0773 19.6966 26.8879C19.6572 26.8402 18.4715 25.4607 14.3159 24.88C8.6747 24.0937 6.3046 23.1857 6.20675 23.1481C5.83058 23.0013 5.64631 22.5812 5.795 22.21Z" fill="white"/>
</svg>
